name C:\Users\u0101727\Documents\MyRepositories\upper-imu-dc\OpenSim\subject0\MA\ResultsMA\grid_4nodes_9dim\angles_3.mot
datacolumns 10
datarows 56
range 300.01000000 300.56000000
endheader 
time	clav_prot	clav_elev	scapula_abduction	scapula_elevation	scapula_upward_rot	scapula_winging	plane_elv	shoulder_elv	axial_rot	
        300.01000000	        -50.00000000	        -10.00000000	         15.00000000	        -10.00000000	         30.00000000	        -10.00000000	         90.00000000	         26.66666667	        -90.00000000	
        300.02000000	        -38.33333333	        -10.00000000	         15.00000000	        -10.00000000	         30.00000000	        -10.00000000	         90.00000000	         26.66666667	        -90.00000000	
        300.03000000	        -26.66666667	        -10.00000000	         15.00000000	        -10.00000000	         30.00000000	        -10.00000000	         90.00000000	         26.66666667	        -90.00000000	
        300.04000000	        -15.00000000	        -10.00000000	         15.00000000	        -10.00000000	         30.00000000	        -10.00000000	         90.00000000	         26.66666667	        -90.00000000	
        300.05000000	        -50.00000000	          0.00000000	         15.00000000	        -10.00000000	         30.00000000	        -10.00000000	         90.00000000	         26.66666667	        -90.00000000	
        300.06000000	        -38.33333333	          0.00000000	         15.00000000	        -10.00000000	         30.00000000	        -10.00000000	         90.00000000	         26.66666667	        -90.00000000	
        300.07000000	        -26.66666667	          0.00000000	         15.00000000	        -10.00000000	         30.00000000	        -10.00000000	         90.00000000	         26.66666667	        -90.00000000	
        300.08000000	        -15.00000000	          0.00000000	         15.00000000	        -10.00000000	         30.00000000	        -10.00000000	         90.00000000	         26.66666667	        -90.00000000	
        300.09000000	        -50.00000000	         10.00000000	         15.00000000	        -10.00000000	         30.00000000	        -10.00000000	         90.00000000	         26.66666667	        -90.00000000	
        300.10000000	        -38.33333333	         10.00000000	         15.00000000	        -10.00000000	         30.00000000	        -10.00000000	         90.00000000	         26.66666667	        -90.00000000	
        300.11000000	        -26.66666667	         10.00000000	         15.00000000	        -10.00000000	         30.00000000	        -10.00000000	         90.00000000	         26.66666667	        -90.00000000	
        300.12000000	        -15.00000000	         10.00000000	         15.00000000	        -10.00000000	         30.00000000	        -10.00000000	         90.00000000	         26.66666667	        -90.00000000	
        300.13000000	        -50.00000000	         20.00000000	         15.00000000	        -10.00000000	         30.00000000	        -10.00000000	         90.00000000	         26.66666667	        -90.00000000	
        300.14000000	        -38.33333333	         20.00000000	         15.00000000	        -10.00000000	         30.00000000	        -10.00000000	         90.00000000	         26.66666667	        -90.00000000	
        300.15000000	        -26.66666667	         20.00000000	         15.00000000	        -10.00000000	         30.00000000	        -10.00000000	         90.00000000	         26.66666667	        -90.00000000	
        300.16000000	        -15.00000000	         20.00000000	         15.00000000	        -10.00000000	         30.00000000	        -10.00000000	         90.00000000	         26.66666667	        -90.00000000	
        300.17000000	        -50.00000000	        -10.00000000	        -40.00000000	         -3.33333333	         30.00000000	        -10.00000000	         90.00000000	         26.66666667	        -90.00000000	
        300.18000000	        -38.33333333	        -10.00000000	        -40.00000000	         -3.33333333	         30.00000000	        -10.00000000	         90.00000000	         26.66666667	        -90.00000000	
        300.19000000	        -26.66666667	        -10.00000000	        -40.00000000	         -3.33333333	         30.00000000	        -10.00000000	         90.00000000	         26.66666667	        -90.00000000	
        300.20000000	        -15.00000000	        -10.00000000	        -40.00000000	         -3.33333333	         30.00000000	        -10.00000000	         90.00000000	         26.66666667	        -90.00000000	
        300.21000000	        -50.00000000	          0.00000000	        -40.00000000	         -3.33333333	         30.00000000	        -10.00000000	         90.00000000	         26.66666667	        -90.00000000	
        300.22000000	        -38.33333333	          0.00000000	        -40.00000000	         -3.33333333	         30.00000000	        -10.00000000	         90.00000000	         26.66666667	        -90.00000000	
        300.23000000	        -26.66666667	          0.00000000	        -40.00000000	         -3.33333333	         30.00000000	        -10.00000000	         90.00000000	         26.66666667	        -90.00000000	
        300.24000000	        -15.00000000	          0.00000000	        -40.00000000	         -3.33333333	         30.00000000	        -10.00000000	         90.00000000	         26.66666667	        -90.00000000	
        300.25000000	        -50.00000000	         10.00000000	        -40.00000000	         -3.33333333	         30.00000000	        -10.00000000	         90.00000000	         26.66666667	        -90.00000000	
        300.26000000	        -38.33333333	         10.00000000	        -40.00000000	         -3.33333333	         30.00000000	        -10.00000000	         90.00000000	         26.66666667	        -90.00000000	
        300.27000000	        -26.66666667	         10.00000000	        -40.00000000	         -3.33333333	         30.00000000	        -10.00000000	         90.00000000	         26.66666667	        -90.00000000	
        300.28000000	        -15.00000000	         10.00000000	        -40.00000000	         -3.33333333	         30.00000000	        -10.00000000	         90.00000000	         26.66666667	        -90.00000000	
        300.29000000	        -50.00000000	         20.00000000	        -40.00000000	         -3.33333333	         30.00000000	        -10.00000000	         90.00000000	         26.66666667	        -90.00000000	
        300.30000000	        -38.33333333	         20.00000000	        -40.00000000	         -3.33333333	         30.00000000	        -10.00000000	         90.00000000	         26.66666667	        -90.00000000	
        300.31000000	        -26.66666667	         20.00000000	        -40.00000000	         -3.33333333	         30.00000000	        -10.00000000	         90.00000000	         26.66666667	        -90.00000000	
        300.32000000	        -15.00000000	         20.00000000	        -40.00000000	         -3.33333333	         30.00000000	        -10.00000000	         90.00000000	         26.66666667	        -90.00000000	
        300.33000000	        -50.00000000	        -10.00000000	        -21.66666667	         -3.33333333	         30.00000000	        -10.00000000	         90.00000000	         26.66666667	        -90.00000000	
        300.34000000	        -38.33333333	        -10.00000000	        -21.66666667	         -3.33333333	         30.00000000	        -10.00000000	         90.00000000	         26.66666667	        -90.00000000	
        300.35000000	        -26.66666667	        -10.00000000	        -21.66666667	         -3.33333333	         30.00000000	        -10.00000000	         90.00000000	         26.66666667	        -90.00000000	
        300.36000000	        -15.00000000	        -10.00000000	        -21.66666667	         -3.33333333	         30.00000000	        -10.00000000	         90.00000000	         26.66666667	        -90.00000000	
        300.37000000	        -50.00000000	          0.00000000	        -21.66666667	         -3.33333333	         30.00000000	        -10.00000000	         90.00000000	         26.66666667	        -90.00000000	
        300.38000000	        -38.33333333	          0.00000000	        -21.66666667	         -3.33333333	         30.00000000	        -10.00000000	         90.00000000	         26.66666667	        -90.00000000	
        300.39000000	        -26.66666667	          0.00000000	        -21.66666667	         -3.33333333	         30.00000000	        -10.00000000	         90.00000000	         26.66666667	        -90.00000000	
        300.40000000	        -15.00000000	          0.00000000	        -21.66666667	         -3.33333333	         30.00000000	        -10.00000000	         90.00000000	         26.66666667	        -90.00000000	
        300.41000000	        -50.00000000	         10.00000000	        -21.66666667	         -3.33333333	         30.00000000	        -10.00000000	         90.00000000	         26.66666667	        -90.00000000	
        300.42000000	        -38.33333333	         10.00000000	        -21.66666667	         -3.33333333	         30.00000000	        -10.00000000	         90.00000000	         26.66666667	        -90.00000000	
        300.43000000	        -26.66666667	         10.00000000	        -21.66666667	         -3.33333333	         30.00000000	        -10.00000000	         90.00000000	         26.66666667	        -90.00000000	
        300.44000000	        -15.00000000	         10.00000000	        -21.66666667	         -3.33333333	         30.00000000	        -10.00000000	         90.00000000	         26.66666667	        -90.00000000	
        300.45000000	        -50.00000000	         20.00000000	        -21.66666667	         -3.33333333	         30.00000000	        -10.00000000	         90.00000000	         26.66666667	        -90.00000000	
        300.46000000	        -38.33333333	         20.00000000	        -21.66666667	         -3.33333333	         30.00000000	        -10.00000000	         90.00000000	         26.66666667	        -90.00000000	
        300.47000000	        -26.66666667	         20.00000000	        -21.66666667	         -3.33333333	         30.00000000	        -10.00000000	         90.00000000	         26.66666667	        -90.00000000	
        300.48000000	        -15.00000000	         20.00000000	        -21.66666667	         -3.33333333	         30.00000000	        -10.00000000	         90.00000000	         26.66666667	        -90.00000000	
        300.49000000	        -50.00000000	        -10.00000000	         -3.33333333	         -3.33333333	         30.00000000	        -10.00000000	         90.00000000	         26.66666667	        -90.00000000	
        300.50000000	        -38.33333333	        -10.00000000	         -3.33333333	         -3.33333333	         30.00000000	        -10.00000000	         90.00000000	         26.66666667	        -90.00000000	
        300.51000000	        -26.66666667	        -10.00000000	         -3.33333333	         -3.33333333	         30.00000000	        -10.00000000	         90.00000000	         26.66666667	        -90.00000000	
        300.52000000	        -15.00000000	        -10.00000000	         -3.33333333	         -3.33333333	         30.00000000	        -10.00000000	         90.00000000	         26.66666667	        -90.00000000	
        300.53000000	        -50.00000000	          0.00000000	         -3.33333333	         -3.33333333	         30.00000000	        -10.00000000	         90.00000000	         26.66666667	        -90.00000000	
        300.54000000	        -38.33333333	          0.00000000	         -3.33333333	         -3.33333333	         30.00000000	        -10.00000000	         90.00000000	         26.66666667	        -90.00000000	
        300.55000000	        -26.66666667	          0.00000000	         -3.33333333	         -3.33333333	         30.00000000	        -10.00000000	         90.00000000	         26.66666667	        -90.00000000	
        300.56000000	        -15.00000000	          0.00000000	         -3.33333333	         -3.33333333	         30.00000000	        -10.00000000	         90.00000000	         26.66666667	        -90.00000000	
